<?xml version="1.0" encoding="UTF-8"?><svg id="_イヤー_1" xmlns="http://www.w3.org/2000/svg" xmlns:xlink="http://www.w3.org/1999/xlink" viewBox="0 0 200 200"><defs><style>.cls-1,.cls-2,.cls-3{fill:none;}.cls-4{fill:#fff;}.cls-2{stroke:#798889;}.cls-2,.cls-3{stroke-linecap:round;stroke-linejoin:round;stroke-width:4px;}.cls-3{stroke:#cc6825;}.cls-5{fill:url(#_称未設定グラデーション_30);}</style><linearGradient id="_称未設定グラデーション_30" x1="75" y1="41" x2="125" y2="41" gradientTransform="matrix(1, 0, 0, 1, 0, 0)" gradientUnits="userSpaceOnUse"><stop offset="0" stop-color="#f1a05b"/><stop offset="1" stop-color="#ed7f2b"/></linearGradient></defs><path class="cls-4" d="M120.42,144.72l-16,17.45c-2.38,2.59-6.47,2.59-8.85,0l-16-17.45c-1.01-1.11-1.58-2.55-1.58-4.05V33h44v107.67c0,1.5-.56,2.95-1.58,4.05Z"/><path class="cls-2" d="M120.42,144.72l-16,17.45c-2.38,2.59-6.47,2.59-8.85,0l-16-17.45c-1.01-1.11-1.58-2.55-1.58-4.05V33h44v107.67c0,1.5-.56,2.95-1.58,4.05Z"/><path class="cls-5" d="M77,33h46c1.1,0,2,.9,2,2v14h-50v-14c0-1.1,.9-2,2-2Z"/><rect class="cls-1" x="0" width="200" height="200"/><path class="cls-3" d="M77,33h46c1.1,0,2,.9,2,2v14h-50v-14c0-1.1,.9-2,2-2Z"/><g><line class="cls-2" x1="122" y1="64.69" x2="116.04" y2="64.69"/><line class="cls-2" x1="122" y1="74.23" x2="116.04" y2="74.23"/><line class="cls-2" x1="122" y1="83.76" x2="116.04" y2="83.76"/><line class="cls-2" x1="122" y1="93.3" x2="116.04" y2="93.3"/><line class="cls-2" x1="122" y1="102.83" x2="116.04" y2="102.83"/><line class="cls-2" x1="122" y1="112.36" x2="116.04" y2="112.36"/><line class="cls-2" x1="122" y1="121.9" x2="116.04" y2="121.9"/><line class="cls-2" x1="122" y1="131.43" x2="116.04" y2="131.43"/></g></svg>