<?xml version="1.0" encoding="UTF-8" standalone="no"?>
<svg width="351.102mm" height="195.792mm"
 viewBox="0 0 1327 740"
 xmlns="http://www.w3.org/2000/svg" xmlns:xlink="http://www.w3.org/1999/xlink"  version="1.2" baseProfile="tiny">
<title>Graph4</title>
<desc>Generated with Qt</desc>
<defs>
</defs>
<g fill="none" stroke="black" stroke-width="1" fill-rule="evenodd" stroke-linecap="square" stroke-linejoin="bevel" >

<g fill="#ffffff" fill-opacity="1" stroke="none" transform="matrix(1,0,0,1,0,0)"
font-family="MS Shell Dlg 2" font-size="10.6667" font-weight="400" font-style="normal" 
>
<rect x="0" y="0" width="1327" height="740"/>
</g>

<g fill="none" stroke="#000000" stroke-opacity="1" stroke-width="1" stroke-linecap="square" stroke-linejoin="bevel" transform="matrix(1,0,0,1,0,0)"
font-family="MS Shell Dlg 2" font-size="10.6667" font-weight="400" font-style="normal" 
>
</g>

<g fill="#ffffff" fill-opacity="1" stroke="none" transform="matrix(1,0,0,1,0,0)"
font-family="MS Shell Dlg 2" font-size="10.6667" font-weight="400" font-style="normal" 
>
<rect x="12" y="5" width="1304" height="722"/>
</g>

<g fill="none" stroke="#000000" stroke-opacity="1" stroke-width="1" stroke-linecap="square" stroke-linejoin="bevel" transform="matrix(1,0,0,1,0,0)"
font-family="MS Shell Dlg 2" font-size="10.6667" font-weight="400" font-style="normal" 
>
</g>

<g fill="none" stroke="#000000" stroke-opacity="1" stroke-width="1" stroke-linecap="square" stroke-linejoin="bevel" transform="matrix(1,0,0,1,0,0)"
font-family="MS Shell Dlg 2" font-size="18.6667" font-weight="700" font-style="normal" 
>
</g>

<g fill="none" stroke="#0000a0" stroke-opacity="1" stroke-width="1" stroke-linecap="square" stroke-linejoin="bevel" transform="matrix(1,0,0,1,0,0)"
font-family="MS Shell Dlg 2" font-size="34.6667" font-weight="700" font-style="normal" 
>
<text fill="#0000a0" fill-opacity="1" stroke="none" xml:space="preserve" x="237" y="40" font-family="MS Shell Dlg 2" font-size="34.6667" font-weight="700" font-style="normal" 
 >YD/PB boundary in NGRIP2 oxygen isotope data</text>
</g>

<g fill="none" stroke="#000000" stroke-opacity="1" stroke-width="1" stroke-linecap="square" stroke-linejoin="bevel" transform="matrix(1,0,0,1,0,0)"
font-family="MS Shell Dlg 2" font-size="18.6667" font-weight="700" font-style="normal" 
>
</g>

<g fill="none" stroke="#000000" stroke-opacity="1" stroke-width="1" stroke-linecap="square" stroke-linejoin="bevel" transform="matrix(0,-1,1,0,12,665)"
font-family="MS Shell Dlg 2" font-size="23.2427" font-weight="400" font-style="normal" 
>
</g>

<g fill="none" stroke="#0000a0" stroke-opacity="1" stroke-width="1" stroke-linecap="square" stroke-linejoin="bevel" transform="matrix(0,-1,1,0,12,665)"
font-family="MS Shell Dlg 2" font-size="29.3333" font-weight="700" font-style="normal" 
>
<text fill="#0000a0" fill-opacity="1" stroke="none" xml:space="preserve" x="230" y="29" font-family="MS Shell Dlg 2" font-size="29.3333" font-weight="700" font-style="normal" 
 >Delta-O18</text>
</g>

<g fill="none" stroke="#000000" stroke-opacity="1" stroke-width="1" stroke-linecap="square" stroke-linejoin="bevel" transform="matrix(0,-1,1,0,12,665)"
font-family="MS Shell Dlg 2" font-size="23.2427" font-weight="400" font-style="normal" 
>
</g>

<g fill="none" stroke="#000000" stroke-opacity="1" stroke-width="1" stroke-linecap="square" stroke-linejoin="bevel" transform="matrix(1,0,0,1,0,0)"
font-family="MS Shell Dlg 2" font-size="18.6667" font-weight="700" font-style="normal" 
>
</g>

<g fill="none" stroke="#000000" stroke-opacity="1" stroke-width="1" stroke-linecap="square" stroke-linejoin="bevel" transform="matrix(1,0,0,1,0,0)"
font-family="MS Shell Dlg 2" font-size="23.2427" font-weight="400" font-style="normal" 
>
</g>

<g fill="none" stroke="#000000" stroke-opacity="1" stroke-width="1" stroke-linecap="square" stroke-linejoin="bevel" transform="matrix(1,0,0,1,49,648)"
font-family="MS Shell Dlg 2" font-size="23.2427" font-weight="400" font-style="normal" 
>
<text fill="#000000" fill-opacity="1" stroke="none" xml:space="preserve" x="0" y="18" font-family="MS Shell Dlg 2" font-size="23.2427" font-weight="400" font-style="normal" 
 >−44</text>
</g>

<g fill="none" stroke="#000000" stroke-opacity="1" stroke-width="1" stroke-linecap="square" stroke-linejoin="bevel" transform="matrix(1,0,0,1,49,648)"
font-family="MS Shell Dlg 2" font-size="23.2427" font-weight="400" font-style="normal" 
>
</g>

<g fill="none" stroke="#000000" stroke-opacity="1" stroke-width="1" stroke-linecap="square" stroke-linejoin="bevel" transform="matrix(1,0,0,1,0,0)"
font-family="MS Shell Dlg 2" font-size="23.2427" font-weight="400" font-style="normal" 
>
</g>

<g fill="none" stroke="#000000" stroke-opacity="1" stroke-width="1" stroke-linecap="square" stroke-linejoin="bevel" transform="matrix(1,0,0,1,49,539)"
font-family="MS Shell Dlg 2" font-size="23.2427" font-weight="400" font-style="normal" 
>
<text fill="#000000" fill-opacity="1" stroke="none" xml:space="preserve" x="0" y="18" font-family="MS Shell Dlg 2" font-size="23.2427" font-weight="400" font-style="normal" 
 >−42</text>
</g>

<g fill="none" stroke="#000000" stroke-opacity="1" stroke-width="1" stroke-linecap="square" stroke-linejoin="bevel" transform="matrix(1,0,0,1,49,539)"
font-family="MS Shell Dlg 2" font-size="23.2427" font-weight="400" font-style="normal" 
>
</g>

<g fill="none" stroke="#000000" stroke-opacity="1" stroke-width="1" stroke-linecap="square" stroke-linejoin="bevel" transform="matrix(1,0,0,1,0,0)"
font-family="MS Shell Dlg 2" font-size="23.2427" font-weight="400" font-style="normal" 
>
</g>

<g fill="none" stroke="#000000" stroke-opacity="1" stroke-width="1" stroke-linecap="square" stroke-linejoin="bevel" transform="matrix(1,0,0,1,49,430)"
font-family="MS Shell Dlg 2" font-size="23.2427" font-weight="400" font-style="normal" 
>
<text fill="#000000" fill-opacity="1" stroke="none" xml:space="preserve" x="0" y="18" font-family="MS Shell Dlg 2" font-size="23.2427" font-weight="400" font-style="normal" 
 >−40</text>
</g>

<g fill="none" stroke="#000000" stroke-opacity="1" stroke-width="1" stroke-linecap="square" stroke-linejoin="bevel" transform="matrix(1,0,0,1,49,430)"
font-family="MS Shell Dlg 2" font-size="23.2427" font-weight="400" font-style="normal" 
>
</g>

<g fill="none" stroke="#000000" stroke-opacity="1" stroke-width="1" stroke-linecap="square" stroke-linejoin="bevel" transform="matrix(1,0,0,1,0,0)"
font-family="MS Shell Dlg 2" font-size="23.2427" font-weight="400" font-style="normal" 
>
</g>

<g fill="none" stroke="#000000" stroke-opacity="1" stroke-width="1" stroke-linecap="square" stroke-linejoin="bevel" transform="matrix(1,0,0,1,49,321)"
font-family="MS Shell Dlg 2" font-size="23.2427" font-weight="400" font-style="normal" 
>
<text fill="#000000" fill-opacity="1" stroke="none" xml:space="preserve" x="0" y="18" font-family="MS Shell Dlg 2" font-size="23.2427" font-weight="400" font-style="normal" 
 >−38</text>
</g>

<g fill="none" stroke="#000000" stroke-opacity="1" stroke-width="1" stroke-linecap="square" stroke-linejoin="bevel" transform="matrix(1,0,0,1,49,321)"
font-family="MS Shell Dlg 2" font-size="23.2427" font-weight="400" font-style="normal" 
>
</g>

<g fill="none" stroke="#000000" stroke-opacity="1" stroke-width="1" stroke-linecap="square" stroke-linejoin="bevel" transform="matrix(1,0,0,1,0,0)"
font-family="MS Shell Dlg 2" font-size="23.2427" font-weight="400" font-style="normal" 
>
</g>

<g fill="none" stroke="#000000" stroke-opacity="1" stroke-width="1" stroke-linecap="square" stroke-linejoin="bevel" transform="matrix(1,0,0,1,49,212)"
font-family="MS Shell Dlg 2" font-size="23.2427" font-weight="400" font-style="normal" 
>
<text fill="#000000" fill-opacity="1" stroke="none" xml:space="preserve" x="0" y="18" font-family="MS Shell Dlg 2" font-size="23.2427" font-weight="400" font-style="normal" 
 >−36</text>
</g>

<g fill="none" stroke="#000000" stroke-opacity="1" stroke-width="1" stroke-linecap="square" stroke-linejoin="bevel" transform="matrix(1,0,0,1,49,212)"
font-family="MS Shell Dlg 2" font-size="23.2427" font-weight="400" font-style="normal" 
>
</g>

<g fill="none" stroke="#000000" stroke-opacity="1" stroke-width="1" stroke-linecap="square" stroke-linejoin="bevel" transform="matrix(1,0,0,1,0,0)"
font-family="MS Shell Dlg 2" font-size="23.2427" font-weight="400" font-style="normal" 
>
</g>

<g fill="none" stroke="#000000" stroke-opacity="1" stroke-width="1" stroke-linecap="square" stroke-linejoin="bevel" transform="matrix(1,0,0,1,49,103)"
font-family="MS Shell Dlg 2" font-size="23.2427" font-weight="400" font-style="normal" 
>
<text fill="#000000" fill-opacity="1" stroke="none" xml:space="preserve" x="0" y="18" font-family="MS Shell Dlg 2" font-size="23.2427" font-weight="400" font-style="normal" 
 >−34</text>
</g>

<g fill="none" stroke="#000000" stroke-opacity="1" stroke-width="1" stroke-linecap="square" stroke-linejoin="bevel" transform="matrix(1,0,0,1,49,103)"
font-family="MS Shell Dlg 2" font-size="23.2427" font-weight="400" font-style="normal" 
>
</g>

<g fill="none" stroke="#000000" stroke-opacity="1" stroke-width="1" stroke-linecap="square" stroke-linejoin="bevel" transform="matrix(1,0,0,1,0,0)"
font-family="MS Shell Dlg 2" font-size="23.2427" font-weight="400" font-style="normal" 
>
</g>

<g fill="none" stroke="#000000" stroke-opacity="1" stroke-width="1" stroke-linecap="square" stroke-linejoin="bevel" transform="matrix(1,0,0,1,0,0)"
font-family="MS Shell Dlg 2" font-size="23.2427" font-weight="400" font-style="normal" 
>
<polyline fill="none" vector-effect="none" points="105,630 100,630 " />
<polyline fill="none" vector-effect="none" points="105,575 100,575 " />
<polyline fill="none" vector-effect="none" points="105,521 100,521 " />
<polyline fill="none" vector-effect="none" points="105,466 100,466 " />
<polyline fill="none" vector-effect="none" points="105,412 100,412 " />
<polyline fill="none" vector-effect="none" points="105,358 100,358 " />
<polyline fill="none" vector-effect="none" points="105,303 100,303 " />
<polyline fill="none" vector-effect="none" points="105,249 100,249 " />
<polyline fill="none" vector-effect="none" points="105,194 100,194 " />
<polyline fill="none" vector-effect="none" points="105,140 100,140 " />
<polyline fill="none" vector-effect="none" points="105,85 100,85 " />
<polyline fill="none" vector-effect="none" points="105,603 100,603 " />
<polyline fill="none" vector-effect="none" points="105,494 100,494 " />
<polyline fill="none" vector-effect="none" points="105,385 100,385 " />
<polyline fill="none" vector-effect="none" points="105,276 100,276 " />
<polyline fill="none" vector-effect="none" points="105,167 100,167 " />
<polyline fill="none" vector-effect="none" points="105,58 100,58 " />
<polyline fill="none" vector-effect="none" points="105,657 96,657 " />
<polyline fill="none" vector-effect="none" points="105,548 96,548 " />
<polyline fill="none" vector-effect="none" points="105,439 96,439 " />
<polyline fill="none" vector-effect="none" points="105,330 96,330 " />
<polyline fill="none" vector-effect="none" points="105,221 96,221 " />
<polyline fill="none" vector-effect="none" points="105,112 96,112 " />
</g>

<g fill="none" stroke="#000000" stroke-opacity="1" stroke-width="1" stroke-linecap="square" stroke-linejoin="bevel" transform="matrix(1,0,0,1,0,0)"
font-family="MS Shell Dlg 2" font-size="23.2427" font-weight="400" font-style="normal" 
>
<polyline fill="none" vector-effect="none" points="105,58 105,656 " />
</g>

<g fill="none" stroke="#000000" stroke-opacity="1" stroke-width="1" stroke-linecap="square" stroke-linejoin="bevel" transform="matrix(1,0,0,1,0,0)"
font-family="MS Shell Dlg 2" font-size="23.2427" font-weight="400" font-style="normal" 
>
</g>

<g fill="none" stroke="#000000" stroke-opacity="1" stroke-width="1" stroke-linecap="square" stroke-linejoin="bevel" transform="matrix(1,0,0,1,0,0)"
font-family="MS Shell Dlg 2" font-size="18.6667" font-weight="700" font-style="normal" 
>
</g>

<g fill="none" stroke="#000000" stroke-opacity="1" stroke-width="1" stroke-linecap="square" stroke-linejoin="bevel" transform="matrix(0,1,-1,0,1315,58)"
font-family="MS Shell Dlg 2" font-size="23.2427" font-weight="400" font-style="normal" 
>
</g>

<g fill="none" stroke="#000000" stroke-opacity="1" stroke-width="1" stroke-linecap="square" stroke-linejoin="bevel" transform="matrix(0,1,-1,0,1315,58)"
font-family="MS Shell Dlg 2" font-size="23.2427" font-weight="400" font-style="normal" 
>
</g>

<g fill="none" stroke="#000000" stroke-opacity="1" stroke-width="1" stroke-linecap="square" stroke-linejoin="bevel" transform="matrix(1,0,0,1,0,0)"
font-family="MS Shell Dlg 2" font-size="18.6667" font-weight="700" font-style="normal" 
>
</g>

<g fill="none" stroke="#000000" stroke-opacity="1" stroke-width="1" stroke-linecap="square" stroke-linejoin="bevel" transform="matrix(1,0,0,1,0,0)"
font-family="MS Shell Dlg 2" font-size="23.2427" font-weight="400" font-style="normal" 
>
</g>

<g fill="none" stroke="#000000" stroke-opacity="1" stroke-width="1" stroke-linecap="square" stroke-linejoin="bevel" transform="matrix(1,0,0,1,0,0)"
font-family="MS Shell Dlg 2" font-size="23.2427" font-weight="400" font-style="normal" 
>
<polyline fill="none" vector-effect="none" points="1310,58 1310,656 " />
</g>

<g fill="none" stroke="#000000" stroke-opacity="1" stroke-width="1" stroke-linecap="square" stroke-linejoin="bevel" transform="matrix(1,0,0,1,0,0)"
font-family="MS Shell Dlg 2" font-size="23.2427" font-weight="400" font-style="normal" 
>
</g>

<g fill="none" stroke="#000000" stroke-opacity="1" stroke-width="1" stroke-linecap="square" stroke-linejoin="bevel" transform="matrix(1,0,0,1,0,0)"
font-family="MS Shell Dlg 2" font-size="18.6667" font-weight="700" font-style="normal" 
>
</g>

<g fill="none" stroke="#000000" stroke-opacity="1" stroke-width="1" stroke-linecap="square" stroke-linejoin="bevel" transform="matrix(1,0,0,1,70,658)"
font-family="MS Shell Dlg 2" font-size="23.2427" font-weight="400" font-style="normal" 
>
</g>

<g fill="none" stroke="#0000a0" stroke-opacity="1" stroke-width="1" stroke-linecap="square" stroke-linejoin="bevel" transform="matrix(1,0,0,1,70,658)"
font-family="MS Shell Dlg 2" font-size="29.3333" font-weight="700" font-style="normal" 
>
<text fill="#0000a0" fill-opacity="1" stroke="none" xml:space="preserve" x="388" y="63" font-family="MS Shell Dlg 2" font-size="29.3333" font-weight="700" font-style="normal" 
 > Age years ago, GICC05 time scale</text>
</g>

<g fill="none" stroke="#000000" stroke-opacity="1" stroke-width="1" stroke-linecap="square" stroke-linejoin="bevel" transform="matrix(1,0,0,1,70,658)"
font-family="MS Shell Dlg 2" font-size="23.2427" font-weight="400" font-style="normal" 
>
</g>

<g fill="none" stroke="#000000" stroke-opacity="1" stroke-width="1" stroke-linecap="square" stroke-linejoin="bevel" transform="matrix(1,0,0,1,0,0)"
font-family="MS Shell Dlg 2" font-size="18.6667" font-weight="700" font-style="normal" 
>
</g>

<g fill="none" stroke="#000000" stroke-opacity="1" stroke-width="1" stroke-linecap="square" stroke-linejoin="bevel" transform="matrix(1,0,0,1,0,0)"
font-family="MS Shell Dlg 2" font-size="23.2427" font-weight="400" font-style="normal" 
>
</g>

<g fill="none" stroke="#000000" stroke-opacity="1" stroke-width="1" stroke-linecap="square" stroke-linejoin="bevel" transform="matrix(1,0,0,1,70,672)"
font-family="MS Shell Dlg 2" font-size="23.2427" font-weight="400" font-style="normal" 
>
<text fill="#000000" fill-opacity="1" stroke="none" xml:space="preserve" x="0" y="18" font-family="MS Shell Dlg 2" font-size="23.2427" font-weight="400" font-style="normal" 
 >11 800</text>
</g>

<g fill="none" stroke="#000000" stroke-opacity="1" stroke-width="1" stroke-linecap="square" stroke-linejoin="bevel" transform="matrix(1,0,0,1,70,672)"
font-family="MS Shell Dlg 2" font-size="23.2427" font-weight="400" font-style="normal" 
>
</g>

<g fill="none" stroke="#000000" stroke-opacity="1" stroke-width="1" stroke-linecap="square" stroke-linejoin="bevel" transform="matrix(1,0,0,1,0,0)"
font-family="MS Shell Dlg 2" font-size="23.2427" font-weight="400" font-style="normal" 
>
</g>

<g fill="none" stroke="#000000" stroke-opacity="1" stroke-width="1" stroke-linecap="square" stroke-linejoin="bevel" transform="matrix(1,0,0,1,190,672)"
font-family="MS Shell Dlg 2" font-size="23.2427" font-weight="400" font-style="normal" 
>
<text fill="#000000" fill-opacity="1" stroke="none" xml:space="preserve" x="0" y="18" font-family="MS Shell Dlg 2" font-size="23.2427" font-weight="400" font-style="normal" 
 >11 780</text>
</g>

<g fill="none" stroke="#000000" stroke-opacity="1" stroke-width="1" stroke-linecap="square" stroke-linejoin="bevel" transform="matrix(1,0,0,1,190,672)"
font-family="MS Shell Dlg 2" font-size="23.2427" font-weight="400" font-style="normal" 
>
</g>

<g fill="none" stroke="#000000" stroke-opacity="1" stroke-width="1" stroke-linecap="square" stroke-linejoin="bevel" transform="matrix(1,0,0,1,0,0)"
font-family="MS Shell Dlg 2" font-size="23.2427" font-weight="400" font-style="normal" 
>
</g>

<g fill="none" stroke="#000000" stroke-opacity="1" stroke-width="1" stroke-linecap="square" stroke-linejoin="bevel" transform="matrix(1,0,0,1,311,672)"
font-family="MS Shell Dlg 2" font-size="23.2427" font-weight="400" font-style="normal" 
>
<text fill="#000000" fill-opacity="1" stroke="none" xml:space="preserve" x="0" y="18" font-family="MS Shell Dlg 2" font-size="23.2427" font-weight="400" font-style="normal" 
 >11 760</text>
</g>

<g fill="none" stroke="#000000" stroke-opacity="1" stroke-width="1" stroke-linecap="square" stroke-linejoin="bevel" transform="matrix(1,0,0,1,311,672)"
font-family="MS Shell Dlg 2" font-size="23.2427" font-weight="400" font-style="normal" 
>
</g>

<g fill="none" stroke="#000000" stroke-opacity="1" stroke-width="1" stroke-linecap="square" stroke-linejoin="bevel" transform="matrix(1,0,0,1,0,0)"
font-family="MS Shell Dlg 2" font-size="23.2427" font-weight="400" font-style="normal" 
>
</g>

<g fill="none" stroke="#000000" stroke-opacity="1" stroke-width="1" stroke-linecap="square" stroke-linejoin="bevel" transform="matrix(1,0,0,1,431,672)"
font-family="MS Shell Dlg 2" font-size="23.2427" font-weight="400" font-style="normal" 
>
<text fill="#000000" fill-opacity="1" stroke="none" xml:space="preserve" x="0" y="18" font-family="MS Shell Dlg 2" font-size="23.2427" font-weight="400" font-style="normal" 
 >11 740</text>
</g>

<g fill="none" stroke="#000000" stroke-opacity="1" stroke-width="1" stroke-linecap="square" stroke-linejoin="bevel" transform="matrix(1,0,0,1,431,672)"
font-family="MS Shell Dlg 2" font-size="23.2427" font-weight="400" font-style="normal" 
>
</g>

<g fill="none" stroke="#000000" stroke-opacity="1" stroke-width="1" stroke-linecap="square" stroke-linejoin="bevel" transform="matrix(1,0,0,1,0,0)"
font-family="MS Shell Dlg 2" font-size="23.2427" font-weight="400" font-style="normal" 
>
</g>

<g fill="none" stroke="#000000" stroke-opacity="1" stroke-width="1" stroke-linecap="square" stroke-linejoin="bevel" transform="matrix(1,0,0,1,551,672)"
font-family="MS Shell Dlg 2" font-size="23.2427" font-weight="400" font-style="normal" 
>
<text fill="#000000" fill-opacity="1" stroke="none" xml:space="preserve" x="0" y="18" font-family="MS Shell Dlg 2" font-size="23.2427" font-weight="400" font-style="normal" 
 >11 720</text>
</g>

<g fill="none" stroke="#000000" stroke-opacity="1" stroke-width="1" stroke-linecap="square" stroke-linejoin="bevel" transform="matrix(1,0,0,1,551,672)"
font-family="MS Shell Dlg 2" font-size="23.2427" font-weight="400" font-style="normal" 
>
</g>

<g fill="none" stroke="#000000" stroke-opacity="1" stroke-width="1" stroke-linecap="square" stroke-linejoin="bevel" transform="matrix(1,0,0,1,0,0)"
font-family="MS Shell Dlg 2" font-size="23.2427" font-weight="400" font-style="normal" 
>
</g>

<g fill="none" stroke="#000000" stroke-opacity="1" stroke-width="1" stroke-linecap="square" stroke-linejoin="bevel" transform="matrix(1,0,0,1,672,672)"
font-family="MS Shell Dlg 2" font-size="23.2427" font-weight="400" font-style="normal" 
>
<text fill="#000000" fill-opacity="1" stroke="none" xml:space="preserve" x="0" y="18" font-family="MS Shell Dlg 2" font-size="23.2427" font-weight="400" font-style="normal" 
 >11 700</text>
</g>

<g fill="none" stroke="#000000" stroke-opacity="1" stroke-width="1" stroke-linecap="square" stroke-linejoin="bevel" transform="matrix(1,0,0,1,672,672)"
font-family="MS Shell Dlg 2" font-size="23.2427" font-weight="400" font-style="normal" 
>
</g>

<g fill="none" stroke="#000000" stroke-opacity="1" stroke-width="1" stroke-linecap="square" stroke-linejoin="bevel" transform="matrix(1,0,0,1,0,0)"
font-family="MS Shell Dlg 2" font-size="23.2427" font-weight="400" font-style="normal" 
>
</g>

<g fill="none" stroke="#000000" stroke-opacity="1" stroke-width="1" stroke-linecap="square" stroke-linejoin="bevel" transform="matrix(1,0,0,1,792,672)"
font-family="MS Shell Dlg 2" font-size="23.2427" font-weight="400" font-style="normal" 
>
<text fill="#000000" fill-opacity="1" stroke="none" xml:space="preserve" x="0" y="18" font-family="MS Shell Dlg 2" font-size="23.2427" font-weight="400" font-style="normal" 
 >11 680</text>
</g>

<g fill="none" stroke="#000000" stroke-opacity="1" stroke-width="1" stroke-linecap="square" stroke-linejoin="bevel" transform="matrix(1,0,0,1,792,672)"
font-family="MS Shell Dlg 2" font-size="23.2427" font-weight="400" font-style="normal" 
>
</g>

<g fill="none" stroke="#000000" stroke-opacity="1" stroke-width="1" stroke-linecap="square" stroke-linejoin="bevel" transform="matrix(1,0,0,1,0,0)"
font-family="MS Shell Dlg 2" font-size="23.2427" font-weight="400" font-style="normal" 
>
</g>

<g fill="none" stroke="#000000" stroke-opacity="1" stroke-width="1" stroke-linecap="square" stroke-linejoin="bevel" transform="matrix(1,0,0,1,912,672)"
font-family="MS Shell Dlg 2" font-size="23.2427" font-weight="400" font-style="normal" 
>
<text fill="#000000" fill-opacity="1" stroke="none" xml:space="preserve" x="0" y="18" font-family="MS Shell Dlg 2" font-size="23.2427" font-weight="400" font-style="normal" 
 >11 660</text>
</g>

<g fill="none" stroke="#000000" stroke-opacity="1" stroke-width="1" stroke-linecap="square" stroke-linejoin="bevel" transform="matrix(1,0,0,1,912,672)"
font-family="MS Shell Dlg 2" font-size="23.2427" font-weight="400" font-style="normal" 
>
</g>

<g fill="none" stroke="#000000" stroke-opacity="1" stroke-width="1" stroke-linecap="square" stroke-linejoin="bevel" transform="matrix(1,0,0,1,0,0)"
font-family="MS Shell Dlg 2" font-size="23.2427" font-weight="400" font-style="normal" 
>
</g>

<g fill="none" stroke="#000000" stroke-opacity="1" stroke-width="1" stroke-linecap="square" stroke-linejoin="bevel" transform="matrix(1,0,0,1,1032,672)"
font-family="MS Shell Dlg 2" font-size="23.2427" font-weight="400" font-style="normal" 
>
<text fill="#000000" fill-opacity="1" stroke="none" xml:space="preserve" x="0" y="18" font-family="MS Shell Dlg 2" font-size="23.2427" font-weight="400" font-style="normal" 
 >11 640</text>
</g>

<g fill="none" stroke="#000000" stroke-opacity="1" stroke-width="1" stroke-linecap="square" stroke-linejoin="bevel" transform="matrix(1,0,0,1,1032,672)"
font-family="MS Shell Dlg 2" font-size="23.2427" font-weight="400" font-style="normal" 
>
</g>

<g fill="none" stroke="#000000" stroke-opacity="1" stroke-width="1" stroke-linecap="square" stroke-linejoin="bevel" transform="matrix(1,0,0,1,0,0)"
font-family="MS Shell Dlg 2" font-size="23.2427" font-weight="400" font-style="normal" 
>
</g>

<g fill="none" stroke="#000000" stroke-opacity="1" stroke-width="1" stroke-linecap="square" stroke-linejoin="bevel" transform="matrix(1,0,0,1,1153,672)"
font-family="MS Shell Dlg 2" font-size="23.2427" font-weight="400" font-style="normal" 
>
<text fill="#000000" fill-opacity="1" stroke="none" xml:space="preserve" x="0" y="18" font-family="MS Shell Dlg 2" font-size="23.2427" font-weight="400" font-style="normal" 
 >11 620</text>
</g>

<g fill="none" stroke="#000000" stroke-opacity="1" stroke-width="1" stroke-linecap="square" stroke-linejoin="bevel" transform="matrix(1,0,0,1,1153,672)"
font-family="MS Shell Dlg 2" font-size="23.2427" font-weight="400" font-style="normal" 
>
</g>

<g fill="none" stroke="#000000" stroke-opacity="1" stroke-width="1" stroke-linecap="square" stroke-linejoin="bevel" transform="matrix(1,0,0,1,0,0)"
font-family="MS Shell Dlg 2" font-size="23.2427" font-weight="400" font-style="normal" 
>
</g>

<g fill="none" stroke="#000000" stroke-opacity="1" stroke-width="1" stroke-linecap="square" stroke-linejoin="bevel" transform="matrix(1,0,0,1,1273,672)"
font-family="MS Shell Dlg 2" font-size="23.2427" font-weight="400" font-style="normal" 
>
<text fill="#000000" fill-opacity="1" stroke="none" xml:space="preserve" x="0" y="18" font-family="MS Shell Dlg 2" font-size="23.2427" font-weight="400" font-style="normal" 
 >11 600</text>
</g>

<g fill="none" stroke="#000000" stroke-opacity="1" stroke-width="1" stroke-linecap="square" stroke-linejoin="bevel" transform="matrix(1,0,0,1,1273,672)"
font-family="MS Shell Dlg 2" font-size="23.2427" font-weight="400" font-style="normal" 
>
</g>

<g fill="none" stroke="#000000" stroke-opacity="1" stroke-width="1" stroke-linecap="square" stroke-linejoin="bevel" transform="matrix(1,0,0,1,0,0)"
font-family="MS Shell Dlg 2" font-size="23.2427" font-weight="400" font-style="normal" 
>
</g>

<g fill="none" stroke="#000000" stroke-opacity="1" stroke-width="1" stroke-linecap="square" stroke-linejoin="bevel" transform="matrix(1,0,0,1,0,0)"
font-family="MS Shell Dlg 2" font-size="23.2427" font-weight="400" font-style="normal" 
>
<polyline fill="none" vector-effect="none" points="136,658 136,663 " />
<polyline fill="none" vector-effect="none" points="196,658 196,663 " />
<polyline fill="none" vector-effect="none" points="256,658 256,663 " />
<polyline fill="none" vector-effect="none" points="317,658 317,663 " />
<polyline fill="none" vector-effect="none" points="377,658 377,663 " />
<polyline fill="none" vector-effect="none" points="437,658 437,663 " />
<polyline fill="none" vector-effect="none" points="497,658 497,663 " />
<polyline fill="none" vector-effect="none" points="557,658 557,663 " />
<polyline fill="none" vector-effect="none" points="617,658 617,663 " />
<polyline fill="none" vector-effect="none" points="677,658 677,663 " />
<polyline fill="none" vector-effect="none" points="738,658 738,663 " />
<polyline fill="none" vector-effect="none" points="798,658 798,663 " />
<polyline fill="none" vector-effect="none" points="858,658 858,663 " />
<polyline fill="none" vector-effect="none" points="918,658 918,663 " />
<polyline fill="none" vector-effect="none" points="978,658 978,663 " />
<polyline fill="none" vector-effect="none" points="1038,658 1038,663 " />
<polyline fill="none" vector-effect="none" points="1098,658 1098,663 " />
<polyline fill="none" vector-effect="none" points="1159,658 1159,663 " />
<polyline fill="none" vector-effect="none" points="1219,658 1219,663 " />
<polyline fill="none" vector-effect="none" points="1279,658 1279,663 " />
<polyline fill="none" vector-effect="none" points="166,658 166,663 " />
<polyline fill="none" vector-effect="none" points="286,658 286,663 " />
<polyline fill="none" vector-effect="none" points="407,658 407,663 " />
<polyline fill="none" vector-effect="none" points="527,658 527,663 " />
<polyline fill="none" vector-effect="none" points="647,658 647,663 " />
<polyline fill="none" vector-effect="none" points="768,658 768,663 " />
<polyline fill="none" vector-effect="none" points="888,658 888,663 " />
<polyline fill="none" vector-effect="none" points="1008,658 1008,663 " />
<polyline fill="none" vector-effect="none" points="1129,658 1129,663 " />
<polyline fill="none" vector-effect="none" points="1249,658 1249,663 " />
<polyline fill="none" vector-effect="none" points="106,658 106,667 " />
<polyline fill="none" vector-effect="none" points="226,658 226,667 " />
<polyline fill="none" vector-effect="none" points="347,658 347,667 " />
<polyline fill="none" vector-effect="none" points="467,658 467,667 " />
<polyline fill="none" vector-effect="none" points="587,658 587,667 " />
<polyline fill="none" vector-effect="none" points="708,658 708,667 " />
<polyline fill="none" vector-effect="none" points="828,658 828,667 " />
<polyline fill="none" vector-effect="none" points="948,658 948,667 " />
<polyline fill="none" vector-effect="none" points="1068,658 1068,667 " />
<polyline fill="none" vector-effect="none" points="1189,658 1189,667 " />
<polyline fill="none" vector-effect="none" points="1309,658 1309,667 " />
</g>

<g fill="none" stroke="#000000" stroke-opacity="1" stroke-width="1" stroke-linecap="square" stroke-linejoin="bevel" transform="matrix(1,0,0,1,0,0)"
font-family="MS Shell Dlg 2" font-size="23.2427" font-weight="400" font-style="normal" 
>
<polyline fill="none" vector-effect="none" points="106,658 1308,658 " />
</g>

<g fill="none" stroke="#000000" stroke-opacity="1" stroke-width="1" stroke-linecap="square" stroke-linejoin="bevel" transform="matrix(1,0,0,1,0,0)"
font-family="MS Shell Dlg 2" font-size="23.2427" font-weight="400" font-style="normal" 
>
</g>

<g fill="none" stroke="#000000" stroke-opacity="1" stroke-width="1" stroke-linecap="square" stroke-linejoin="bevel" transform="matrix(1,0,0,1,0,0)"
font-family="MS Shell Dlg 2" font-size="18.6667" font-weight="700" font-style="normal" 
>
</g>

<g fill="none" stroke="#000000" stroke-opacity="1" stroke-width="1" stroke-linecap="square" stroke-linejoin="bevel" transform="matrix(1,0,0,1,70,52)"
font-family="MS Shell Dlg 2" font-size="23.2427" font-weight="400" font-style="normal" 
>
</g>

<g fill="none" stroke="#000000" stroke-opacity="1" stroke-width="1" stroke-linecap="square" stroke-linejoin="bevel" transform="matrix(1,0,0,1,70,52)"
font-family="MS Shell Dlg 2" font-size="23.2427" font-weight="400" font-style="normal" 
>
</g>

<g fill="none" stroke="#000000" stroke-opacity="1" stroke-width="1" stroke-linecap="square" stroke-linejoin="bevel" transform="matrix(1,0,0,1,0,0)"
font-family="MS Shell Dlg 2" font-size="18.6667" font-weight="700" font-style="normal" 
>
</g>

<g fill="none" stroke="#000000" stroke-opacity="1" stroke-width="1" stroke-linecap="square" stroke-linejoin="bevel" transform="matrix(1,0,0,1,0,0)"
font-family="MS Shell Dlg 2" font-size="23.2427" font-weight="400" font-style="normal" 
>
</g>

<g fill="none" stroke="#000000" stroke-opacity="1" stroke-width="1" stroke-linecap="square" stroke-linejoin="bevel" transform="matrix(1,0,0,1,0,0)"
font-family="MS Shell Dlg 2" font-size="23.2427" font-weight="400" font-style="normal" 
>
<polyline fill="none" vector-effect="none" points="106,57 1308,57 " />
</g>

<g fill="none" stroke="#000000" stroke-opacity="1" stroke-width="1" stroke-linecap="square" stroke-linejoin="bevel" transform="matrix(1,0,0,1,0,0)"
font-family="MS Shell Dlg 2" font-size="23.2427" font-weight="400" font-style="normal" 
>
</g>

<g fill="none" stroke="#000000" stroke-opacity="1" stroke-width="1" stroke-linecap="square" stroke-linejoin="bevel" transform="matrix(1,0,0,1,0,0)"
font-family="MS Shell Dlg 2" font-size="18.6667" font-weight="700" font-style="normal" 
>
</g>

<g fill="#ffffff" fill-opacity="1" stroke="none" transform="matrix(1,0,0,1,0,0)"
font-family="MS Shell Dlg 2" font-size="18.6667" font-weight="700" font-style="normal" 
>
<rect x="106" y="58" width="1203" height="599"/>
</g>

<g fill="none" stroke="#000000" stroke-opacity="1" stroke-width="1" stroke-linecap="square" stroke-linejoin="bevel" transform="matrix(1,0,0,1,0,0)"
font-family="MS Shell Dlg 2" font-size="18.6667" font-weight="700" font-style="normal" 
>
</g>

<g fill="none" stroke="#000000" stroke-opacity="1" stroke-width="1" stroke-linecap="square" stroke-linejoin="bevel" transform="matrix(1,0,0,1,0,0)"
font-family="MS Shell Dlg 2" font-size="18.6667" font-weight="700" font-style="normal" 
>
</g>

<g fill="none" stroke="#000000" stroke-opacity="1" stroke-width="1" stroke-linecap="square" stroke-linejoin="bevel" transform="matrix(1,0,0,1,0,0)"
font-family="MS Shell Dlg 2" font-size="18.6667" font-weight="700" font-style="normal" 
>
</g>

<g fill="none" stroke="#7f7fff" stroke-opacity="1" stroke-width="2" stroke-linecap="butt" stroke-linejoin="bevel" transform="matrix(1,0,0,1,0,0)"
font-family="MS Shell Dlg 2" font-size="18.6667" font-weight="700" font-style="normal" 
>
<polyline fill="none" vector-effect="non-scaling-stroke" points="1309,181 1302,233 1296,216 1291,254 1286,308 1280,262 1276,255 1272,269 1266,242 1258,230 1254,250 1249,233 1245,246 1240,215 1236,193 1231,262 1226,252 1221,173 1215,188 1209,230 1204,256 1199,274 1194,269 1189,294 1184,372 1180,377 1175,283 1170,227 1166,252 1161,291 1156,286 1151,213 1146,181 1142,228 1136,220 1132,201 1127,194 1122,202 1118,261 1112,253 1107,239 1102,234 1097,232 1089,232 1081,257 1076,248 1070,303 1065,364 1058,367 1053,346 1050,323 1044,278 1040,252 1034,264 1029,275 1025,262 1021,297 1015,350 1010,342 1005,228 1000,132 996,170 990,269 985,273 981,219 973,254 969,227 966,97 958,158 953,236 947,252 943,334 939,402 934,356 928,297 922,329 916,395 908,389 900,441 894,462 889,327 882,353 877,425 869,383 863,338 858,287 852,215 847,200 841,310 834,441 827,487 821,457 815,425 809,296 803,213 799,243 794,346 787,356 779,300 773,371 767,397 762,353 757,358 751,389 744,436 735,531 727,555 715,510 706,444 701,470 689,434 681,300 672,291 665,385 655,476 645,457 634,473 620,451 611,429 599,412 585,421 573,495 564,586 558,516 551,467 538,497 532,395 525,236 517,232 507,463 499,443 486,313 477,301 469,477 463,634 452,638 439,594 429,578 422,323 412,403 403,508 393,499 384,589 376,536 368,439 358,334 349,304 338,479 330,544 320,595 311,553 303,380 292,356 281,510 269,507 261,466 251,392 237,416 225,433 215,399 204,414 193,335 185,284 178,403 166,532 154,491 141,452 133,460 124,483 113,457 106,485 " />
</g>

<g fill="none" stroke="#000000" stroke-opacity="1" stroke-width="1" stroke-linecap="square" stroke-linejoin="bevel" transform="matrix(1,0,0,1,0,0)"
font-family="MS Shell Dlg 2" font-size="18.6667" font-weight="700" font-style="normal" 
>
</g>

<g fill="none" stroke="#000000" stroke-opacity="1" stroke-width="1" stroke-linecap="square" stroke-linejoin="bevel" transform="matrix(1,0,0,1,0,0)"
font-family="MS Shell Dlg 2" font-size="18.6667" font-weight="700" font-style="normal" 
>
</g>

<g fill="none" stroke="#000000" stroke-opacity="1" stroke-width="1" stroke-linecap="square" stroke-linejoin="bevel" transform="matrix(1,0,0,1,0,0)"
font-family="MS Shell Dlg 2" font-size="18.6667" font-weight="700" font-style="normal" 
>
</g>

<g fill="none" stroke="#0000a0" stroke-opacity="1" stroke-width="10" stroke-linecap="square" stroke-linejoin="bevel" transform="matrix(1,0,0,1,0,0)"
font-family="MS Shell Dlg 2" font-size="18.6667" font-weight="700" font-style="normal" 
>
<polyline fill="none" vector-effect="non-scaling-stroke" points="1309,257 1302,253 1296,247 1291,242 1286,237 1280,231 1276,226 1272,223 1266,224 1258,229 1254,234 1249,239 1245,246 1240,254 1236,256 1231,256 1226,256 1221,256 1215,257 1209,255 1204,251 1199,251 1194,251 1189,249 1184,247 1180,245 1175,247 1170,250 1166,249 1161,248 1156,250 1151,252 1146,253 1142,253 1136,254 1132,258 1127,261 1122,260 1118,257 1112,257 1107,258 1102,259 1097,258 1089,257 1081,261 1076,267 1070,272 1065,272 1058,269 1053,268 1050,271 1044,272 1040,270 1034,271 1029,270 1025,265 1021,262 1015,261 1010,261 1005,263 1000,264 996,264 990,262 985,262 981,267 973,272 969,279 966,287 958,289 953,292 947,295 943,296 939,301 934,307 928,309 922,306 916,307 908,316 900,326 894,335 889,348 882,353 877,352 869,352 863,353 858,351 852,349 847,351 841,354 834,353 827,351 821,349 815,348 809,356 803,364 799,368 794,370 787,376 779,381 773,385 767,389 762,392 757,393 751,392 744,392 735,393 727,399 715,407 706,414 701,420 689,429 681,438 672,442 665,446 655,447 645,442 634,436 620,437 611,434 599,424 585,416 573,417 564,423 558,432 551,443 538,455 532,452 525,449 517,451 507,452 499,458 486,462 477,463 469,460 463,452 452,448 439,449 429,454 422,456 412,456 403,461 393,472 384,473 376,474 368,478 358,482 349,480 338,471 330,462 320,452 311,440 303,443 292,448 281,448 269,446 261,441 251,438 237,439 225,446 215,456 204,454 193,446 185,436 178,436 166,444 154,450 141,450 133,447 124,446 113,447 106,447 " />
</g>

<g fill="none" stroke="#000000" stroke-opacity="1" stroke-width="1" stroke-linecap="square" stroke-linejoin="bevel" transform="matrix(1,0,0,1,0,0)"
font-family="MS Shell Dlg 2" font-size="18.6667" font-weight="700" font-style="normal" 
>
</g>

<g fill="none" stroke="#000000" stroke-opacity="1" stroke-width="1" stroke-linecap="square" stroke-linejoin="bevel" transform="matrix(1,0,0,1,0,0)"
font-family="MS Shell Dlg 2" font-size="18.6667" font-weight="700" font-style="normal" 
>
</g>

<g fill="none" stroke="#000000" stroke-opacity="1" stroke-width="1" stroke-linecap="square" stroke-linejoin="bevel" transform="matrix(1,0,0,1,0,0)"
font-family="MS Shell Dlg 2" font-size="18.6667" font-weight="700" font-style="normal" 
>
<polyline fill="none" vector-effect="none" points="1309,630 1304,630 " />
<polyline fill="none" vector-effect="none" points="1309,575 1304,575 " />
<polyline fill="none" vector-effect="none" points="1309,521 1304,521 " />
<polyline fill="none" vector-effect="none" points="1309,466 1304,466 " />
<polyline fill="none" vector-effect="none" points="1309,412 1304,412 " />
<polyline fill="none" vector-effect="none" points="1309,358 1304,358 " />
<polyline fill="none" vector-effect="none" points="1309,303 1304,303 " />
<polyline fill="none" vector-effect="none" points="1309,249 1304,249 " />
<polyline fill="none" vector-effect="none" points="1309,194 1304,194 " />
<polyline fill="none" vector-effect="none" points="1309,140 1304,140 " />
<polyline fill="none" vector-effect="none" points="1309,85 1304,85 " />
<polyline fill="none" vector-effect="none" points="1309,603 1304,603 " />
<polyline fill="none" vector-effect="none" points="1309,494 1304,494 " />
<polyline fill="none" vector-effect="none" points="1309,385 1304,385 " />
<polyline fill="none" vector-effect="none" points="1309,276 1304,276 " />
<polyline fill="none" vector-effect="none" points="1309,167 1304,167 " />
<polyline fill="none" vector-effect="none" points="1309,548 1300,548 " />
<polyline fill="none" vector-effect="none" points="1309,439 1300,439 " />
<polyline fill="none" vector-effect="none" points="1309,330 1300,330 " />
<polyline fill="none" vector-effect="none" points="1309,221 1300,221 " />
<polyline fill="none" vector-effect="none" points="1309,112 1300,112 " />
</g>

<g fill="none" stroke="#000000" stroke-opacity="1" stroke-width="1" stroke-linecap="square" stroke-linejoin="bevel" transform="matrix(1,0,0,1,0,0)"
font-family="MS Shell Dlg 2" font-size="18.6667" font-weight="700" font-style="normal" 
>
</g>

<g fill="none" stroke="#000000" stroke-opacity="1" stroke-width="1" stroke-linecap="square" stroke-linejoin="bevel" transform="matrix(1,0,0,1,0,0)"
font-family="MS Shell Dlg 2" font-size="18.6667" font-weight="700" font-style="normal" 
>
<polyline fill="none" vector-effect="none" points="136,58 136,63 " />
<polyline fill="none" vector-effect="none" points="196,58 196,63 " />
<polyline fill="none" vector-effect="none" points="256,58 256,63 " />
<polyline fill="none" vector-effect="none" points="317,58 317,63 " />
<polyline fill="none" vector-effect="none" points="377,58 377,63 " />
<polyline fill="none" vector-effect="none" points="437,58 437,63 " />
<polyline fill="none" vector-effect="none" points="497,58 497,63 " />
<polyline fill="none" vector-effect="none" points="557,58 557,63 " />
<polyline fill="none" vector-effect="none" points="617,58 617,63 " />
<polyline fill="none" vector-effect="none" points="677,58 677,63 " />
<polyline fill="none" vector-effect="none" points="738,58 738,63 " />
<polyline fill="none" vector-effect="none" points="798,58 798,63 " />
<polyline fill="none" vector-effect="none" points="858,58 858,63 " />
<polyline fill="none" vector-effect="none" points="918,58 918,63 " />
<polyline fill="none" vector-effect="none" points="978,58 978,63 " />
<polyline fill="none" vector-effect="none" points="1038,58 1038,63 " />
<polyline fill="none" vector-effect="none" points="1098,58 1098,63 " />
<polyline fill="none" vector-effect="none" points="1159,58 1159,63 " />
<polyline fill="none" vector-effect="none" points="1219,58 1219,63 " />
<polyline fill="none" vector-effect="none" points="1279,58 1279,63 " />
<polyline fill="none" vector-effect="none" points="166,58 166,63 " />
<polyline fill="none" vector-effect="none" points="286,58 286,63 " />
<polyline fill="none" vector-effect="none" points="407,58 407,63 " />
<polyline fill="none" vector-effect="none" points="527,58 527,63 " />
<polyline fill="none" vector-effect="none" points="647,58 647,63 " />
<polyline fill="none" vector-effect="none" points="768,58 768,63 " />
<polyline fill="none" vector-effect="none" points="888,58 888,63 " />
<polyline fill="none" vector-effect="none" points="1008,58 1008,63 " />
<polyline fill="none" vector-effect="none" points="1129,58 1129,63 " />
<polyline fill="none" vector-effect="none" points="1249,58 1249,63 " />
<polyline fill="none" vector-effect="none" points="226,58 226,67 " />
<polyline fill="none" vector-effect="none" points="347,58 347,67 " />
<polyline fill="none" vector-effect="none" points="467,58 467,67 " />
<polyline fill="none" vector-effect="none" points="587,58 587,67 " />
<polyline fill="none" vector-effect="none" points="708,58 708,67 " />
<polyline fill="none" vector-effect="none" points="828,58 828,67 " />
<polyline fill="none" vector-effect="none" points="948,58 948,67 " />
<polyline fill="none" vector-effect="none" points="1068,58 1068,67 " />
<polyline fill="none" vector-effect="none" points="1189,58 1189,67 " />
</g>

<g fill="none" stroke="#000000" stroke-opacity="1" stroke-width="1" stroke-linecap="square" stroke-linejoin="bevel" transform="matrix(1,0,0,1,0,0)"
font-family="MS Shell Dlg 2" font-size="18.6667" font-weight="700" font-style="normal" 
>
</g>

<g fill="none" stroke="#000000" stroke-opacity="1" stroke-width="1" stroke-linecap="round" stroke-linejoin="round" transform="matrix(1,0,0,1,0,0)"
font-family="MS Shell Dlg 2" font-size="18.6667" font-weight="700" font-style="normal" 
>
</g>

<g fill="none" stroke="#000000" stroke-opacity="1" stroke-width="1" stroke-linecap="square" stroke-linejoin="bevel" transform="matrix(1,0,0,1,0,0)"
font-family="MS Shell Dlg 2" font-size="18.6667" font-weight="700" font-style="normal" 
>
</g>

<g fill="none" stroke="#000000" stroke-opacity="1" stroke-width="1" stroke-linecap="square" stroke-linejoin="bevel" transform="matrix(1,0,0,1,0,0)"
font-family="MS Shell Dlg 2" font-size="10.6667" font-weight="400" font-style="normal" 
>
</g>
</g>
</svg>
