<svg version="1.1" xmlns="http://www.w3.org/2000/svg" viewBox="41.25 144.43 362.25 186.57" width="362.25" height="186.57"><path d="M375.25,205.34 L375.39,287.11 L363.61,287.11 C362.54,228.70 283.67,222.37 271.89,275.25 C270.48,277.99 270.02,282.81 269.87,287.07 L269.32,286.97 L209.88,287.41 C200.62,286.70 186.55,286.95 176.64,287.18 C179.03,227.66 96.68,224.05 86.89,274.75 C84.69,276.86 85.07,282.73 84.88,287.00 L68.79,287.01 C69.14,286.12 69.21,282.69 68.60,282.25 L68.66,273.50 L68.66,237.00 L68.50,205.75 L375.25,205.34 Z" fill="#CACACA" fill-rule="nonzero"/><g><path d="M400.50,291.00 L374.00,291.00 L364.06,291.00 C361.50,286.03 374.19,289.49 375.39,287.11 L376.75,286.66 C376.73,277.46 378.02,209.00 376.41,205.53 C376.82,205.48 374.10,204.38 375.25,205.34 L68.50,205.75 L68.66,237.00 L68.66,273.50 L68.60,282.25 L68.75,287.46 C69.18,291.16 89.28,286.50 86.23,291.06 L46.10,291.02 L45.75,147.75 L68.50,147.85 L68.50,174.51 L68.50,201.18 L376.00,200.93 C377.56,184.54 376.68,164.99 376.28,148.21 L377.07,147.43 L400.50,147.75 L400.50,291.00 Z" fill="#030303" fill-rule="nonzero"/><path d="M49.69,151.47 L64.25,151.75 L64.50,287.50 L49.00,287.50 L49.00,152.17 L49.69,151.47 Z" fill="#CACACA" fill-rule="nonzero"/><g><path d="M396.62,164.25 C394.69,202.58 394.95,248.66 396.47,287.00 L380.50,287.00 L380.51,151.75 L388.48,151.61 L396.45,151.47 L396.62,164.25 Z" fill="#CACACA" fill-rule="nonzero"/><path d="M397.04,287.04 L396.47,287.00 C394.95,248.66 394.69,202.58 396.62,164.25 L397.04,287.04 Z" fill="#7E7D7D" fill-rule="nonzero"/></g><g><path d="M396.55,287.54 C398.03,289.44 378.66,289.86 380.40,287.59 L396.55,287.54 Z" fill="#313131" fill-rule="nonzero"/><path d="M396.47,287.00 L396.55,287.54 L380.40,287.59 L380.50,287.00 L396.47,287.00 Z" fill="#7E7D7D" fill-rule="nonzero"/></g><g><path d="M209.88,287.41 L210.30,290.99 L241.25,291.34 L176.70,291.34 C173.85,310.03 163.94,322.34 148.25,328.00 L113.88,328.00 C99.41,322.46 89.99,309.85 86.42,292.91 L86.23,291.06 C89.28,286.50 69.18,291.16 68.75,287.46 C91.99,286.27 85.63,292.54 86.89,274.75 C96.68,224.05 179.03,227.66 176.64,287.18 C186.55,286.95 200.62,286.70 209.88,287.41 Z" fill="#313131" fill-rule="nonzero"/><g><path d="M161.25,292.75 C154.49,309.41 144.69,316.58 121.25,313.75 C105.12,307.88 93.99,287.05 105.56,268.67 C123.38,241.48 167.28,255.68 161.25,292.75 Z" fill="#FEFEFE" fill-rule="nonzero"/><path d="M133.55,277.00 C141.61,278.53 141.85,294.54 130.63,293.50 C118.92,292.42 121.95,274.79 133.55,277.00 Z" fill="#7E7D7D" fill-rule="nonzero"/></g><path d="M45.75,147.75 L46.10,291.02 L86.23,291.06 L86.42,292.91 C81.86,292.87 45.00,293.93 44.25,291.75 L44.56,147.95 L45.75,147.75 Z" fill="#7E7D7D" fill-rule="nonzero"/><path d="M86.89,274.75 C85.63,292.54 91.99,286.27 68.75,287.46 L68.60,282.25 C69.21,282.69 69.14,286.12 68.79,287.01 L84.88,287.00 C85.07,282.73 84.69,276.86 86.89,274.75 Z" fill="#7E7D7D" fill-rule="nonzero"/></g><g><path d="M375.39,287.11 C374.19,289.49 361.50,286.03 364.06,291.00 L374.00,291.00 L374.07,291.37 L363.15,291.37 C359.10,309.16 348.93,322.54 333.12,328.00 L300.24,328.00 C287.91,326.16 272.57,305.31 270.97,291.51 C271.25,287.87 270.80,288.87 269.32,286.97 L269.87,287.07 C271.93,286.61 272.00,286.24 271.89,275.25 C283.67,222.37 362.54,228.70 363.61,287.11 L375.39,287.11 Z" fill="#313131" fill-rule="nonzero"/><g><path d="M321.29,254.50 C351.55,260.73 356.34,299.41 329.18,312.47 C276.20,327.80 271.93,250.76 321.29,254.50 Z" fill="#FEFEFE" fill-rule="nonzero"/><path d="M323.23,291.23 C316.14,298.31 303.60,288.92 309.91,280.25 C317.56,269.74 331.49,282.96 323.23,291.23 Z" fill="#7E7D7D" fill-rule="nonzero"/></g><path d="M269.32,286.97 C270.80,288.87 271.25,287.87 270.97,291.51 L241.25,291.34 L210.30,290.99 L209.88,287.41 L269.32,286.97 Z" fill="#030303" fill-rule="nonzero"/><path d="M271.89,275.25 C272.00,286.24 271.93,286.61 269.87,287.07 C270.02,282.81 270.48,277.99 271.89,275.25 Z" fill="#7E7D7D" fill-rule="nonzero"/></g><path d="M375.25,205.34 C374.10,204.38 376.82,205.48 376.41,205.53 C378.02,209.00 376.73,277.46 376.75,286.66 L375.39,287.11 L375.25,205.34 Z" fill="#7E7D7D" fill-rule="nonzero"/><path d="M376.28,148.21 C376.68,164.99 377.56,184.54 376.00,200.93 C375.28,185.17 374.96,162.59 376.28,148.21 Z" fill="#7E7D7D" fill-rule="nonzero"/><path d="M400.50,291.00 L400.50,292.34 C391.92,291.65 379.96,294.64 374.07,291.37 L374.00,291.00 L400.50,291.00 Z" fill="#7E7D7D" fill-rule="nonzero"/></g><path d="M397.04,287.04 L396.55,287.54 L396.47,287.00 L397.04,287.04 Z" fill="#313131" fill-rule="nonzero"/><path d="M68.66,273.50 L68.66,237.00 L68.66,273.50 Z" fill="#7E7D7D" fill-rule="nonzero"/><path d="M377.07,147.43 L376.28,148.21 L377.07,147.43 Z" fill="#7E7D7D" fill-rule="nonzero"/></svg>
