<?xml version="1.0" encoding="UTF-8" standalone="no"?>
<!-- Generator: Adobe Illustrator 10.0, SVG Export Plug-In . SVG Version: 3.0.0 Build 76)  -->
<svg
   xmlns:dc="http://purl.org/dc/elements/1.1/"
   xmlns:cc="http://web.resource.org/cc/"
   xmlns:rdf="http://www.w3.org/1999/02/22-rdf-syntax-ns#"
   xmlns:svg="http://www.w3.org/2000/svg"
   xmlns="http://www.w3.org/2000/svg"
   xmlns:sodipodi="http://sodipodi.sourceforge.net/DTD/sodipodi-0.dtd"
   xmlns:inkscape="http://www.inkscape.org/namespaces/inkscape"
   width="542"
   height="258"
   viewBox="0 0 542 258"
   overflow="visible"
   enable-background="new 0 0 542 258"
   xml:space="preserve"
   id="svg2"
   sodipodi:version="0.32"
   inkscape:version="0.44"
   sodipodi:docname="Lens3.svg"
   sodipodi:docbase="/home/floyd/Grafika/SVGs/optyka"><metadata
   id="metadata187"><rdf:RDF><cc:Work
       rdf:about=""><dc:format>image/svg+xml</dc:format><dc:type
         rdf:resource="http://purl.org/dc/dcmitype/StillImage" /></cc:Work></rdf:RDF></metadata><defs
   id="defs185">
		
	
			
			
			
			
			
			
			
			
			
			
			
			
			
			
			
			
			
			
			
			
			
			
			
			
			
			
			
			
		</defs><sodipodi:namedview
   inkscape:window-height="932"
   inkscape:window-width="1274"
   inkscape:pageshadow="2"
   inkscape:pageopacity="0.0"
   guidetolerance="10.0"
   gridtolerance="10.0"
   objecttolerance="10.0"
   borderopacity="1.0"
   bordercolor="#666666"
   pagecolor="#ffffff"
   id="base"
   inkscape:zoom="1"
   inkscape:cx="285.3935"
   inkscape:cy="116.9245"
   inkscape:window-x="0"
   inkscape:window-y="22"
   inkscape:current-layer="svg2" />
	<path
   d="M 542,258 L 0,258 L 0,0 L 542,0 L 542,258 z "
   id="path6"
   style="fill:#fffcf3" /><text
   xml:space="preserve"
   style="font-size:14px;font-style:italic;font-variant:normal;font-weight:normal;font-stretch:normal;text-indent:0;text-align:center;text-decoration:none;line-height:80.00000119%;letter-spacing:normal;word-spacing:normal;text-transform:none;direction:ltr;block-progression:tb;writing-mode:lr-tb;text-anchor:middle;opacity:1;color:black;fill:black;fill-opacity:1;fill-rule:nonzero;stroke:none;stroke-width:0.99999994px;stroke-linecap:butt;stroke-linejoin:miter;marker:none;marker-start:none;marker-mid:none;marker-end:none;stroke-miterlimit:4;stroke-dasharray:none;stroke-dashoffset:0;stroke-opacity:1;visibility:visible;display:inline;overflow:visible;font-family:FreeSerif"
   x="498.24359"
   y="134.39032"
   id="text2055"
   sodipodi:linespacing="80.000001%"><tspan
     sodipodi:role="line"
     id="tspan2057"
     x="498.24359"
     y="134.39032">Obraz</tspan><tspan
     sodipodi:role="line"
     x="498.24359"
     y="145.59032"
     id="tspan2238">rzeczywisty</tspan></text>
<text
   xml:space="preserve"
   style="font-size:14px;font-style:italic;font-variant:normal;font-weight:normal;font-stretch:normal;text-indent:0;text-align:center;text-decoration:none;line-height:125%;letter-spacing:normal;word-spacing:normal;text-transform:none;direction:ltr;block-progression:tb;writing-mode:lr-tb;text-anchor:middle;opacity:1;color:black;fill:black;fill-opacity:1;fill-rule:nonzero;stroke:none;stroke-width:0.99999994px;stroke-linecap:butt;stroke-linejoin:miter;marker:none;marker-start:none;marker-mid:none;marker-end:none;stroke-miterlimit:4;stroke-dasharray:none;stroke-dashoffset:0;stroke-opacity:1;visibility:visible;display:inline;overflow:visible;font-family:FreeSerif"
   x="67.62854"
   y="146.75505"
   id="text2051"
   sodipodi:linespacing="125%"><tspan
     sodipodi:role="line"
     id="tspan2053"
     x="67.62854"
     y="146.75505">Przedmiot</tspan></text>
<path
   d="M 8.875,152.75 L 518.492,152.75"
   id="path8"
   style="fill:white;stroke:black;stroke-width:0.5;stroke-dasharray:6, 3" /><path
   d="M 219.801,43.691 L 219.801,247.217"
   id="path10"
   style="fill:white;stroke:black;stroke-width:0.25" /><path
   d="M 32.375,22.09 L 32.375,247.217"
   id="path12"
   style="fill:white;stroke:black;stroke-width:0.25" /><path
   d="M 435.797,43.691 L 435.797,247.217"
   id="path14"
   style="fill:white;stroke:black;stroke-width:0.25" /><path
   d="M 497.661,22.09 L 497.661,247.217"
   id="path16"
   style="fill:white;stroke:black;stroke-width:0.25" /><path
   enable-background="new    "
   d="M 311.326,150.479 C 311.326,179.901 315.655,208.307 323.668,235.124 L 332.324,235.124 C 339.906,208.978 343.99,181.343 343.99,152.751 C 343.99,124.158 339.902,96.526 332.316,70.379 L 322.337,70.379 C 315.174,95.852 311.326,122.713 311.326,150.479 z "
   id="path18"
   style="opacity:0.75;fill:#cce2ef;stroke:black;stroke-width:0.75" /><g
   id="g20">
				<g
   id="g22">
					<path
   d="M 219.801,53.601 L 227.052,51.351 L 227.052,55.851 L 219.801,53.601 z "
   id="path24" />
					<path
   d=""
   id="path26" />
				</g>
				<path
   d="M 227.052,53.601 L 268.039,53.601"
   id="path28"
   style="fill:none;stroke:black;stroke-width:0.5;stroke-linecap:square" />
			</g><g
   id="g30">
				<g
   id="g32">
					<path
   d="M 32.375,28.401 L 39.626,26.151 L 39.626,30.651 L 32.375,28.401 z "
   id="path34" />
					<path
   d=""
   id="path36" />
				</g>
				<path
   d="M 39.626,28.401 L 149.013,28.401"
   id="path38"
   style="fill:none;stroke:black;stroke-width:0.5;stroke-linecap:square" />
			</g><g
   id="g40">
				<g
   id="g42">
					<path
   d="M 327.797,28.401 L 320.546,26.151 L 320.546,30.651 L 327.797,28.401 z "
   id="path44" />
					<path
   d=""
   id="path46" />
				</g>
				<path
   d="M 320.546,28.401 L 167.962,28.401"
   id="path48"
   style="fill:none;stroke:black;stroke-width:0.5;stroke-linecap:square" />
			</g><g
   id="g50">
				<g
   id="g52">
					<path
   d="M 497.661,28.401 L 490.41,26.151 L 490.41,30.651 L 497.661,28.401 z "
   id="path54" />
					<path
   d=""
   id="path56" />
				</g>
				<path
   d="M 490.41,28.401 L 420.629,28.401"
   id="path58"
   style="fill:none;stroke:black;stroke-width:0.5;stroke-linecap:square" />
			</g><g
   id="g60">
				<g
   id="g62">
					<path
   d="M 327.797,53.602 L 320.546,51.352 L 320.546,55.852 L 327.797,53.602 z "
   id="path64" />
					<path
   d=""
   id="path66" />
				</g>
				<path
   d="M 320.546,53.602 L 279.563,53.602"
   id="path68"
   style="fill:none;stroke:black;stroke-width:0.5;stroke-linecap:square" />
			</g><g
   id="g70">
				<g
   id="g72">
					<path
   d="M 435.797,53.601 L 428.546,51.351 L 428.546,55.851 L 435.797,53.601 z "
   id="path74" />
					<path
   d=""
   id="path76" />
				</g>
				<path
   d="M 428.546,53.601 L 387.564,53.601"
   id="path78"
   style="fill:none;stroke:black;stroke-width:0.5;stroke-linecap:square" />
			</g><g
   id="g80">
				<g
   id="g82">
					<path
   d="M 327.797,53.601 L 335.048,51.351 L 335.048,55.851 L 327.797,53.601 z "
   id="path84" />
					<path
   d=""
   id="path86" />
				</g>
				<path
   d="M 335.048,53.601 L 376.031,53.601"
   id="path88"
   style="fill:none;stroke:black;stroke-width:0.5;stroke-linecap:square" />
			</g><g
   id="g90">
				<g
   id="g92">
					<path
   d="M 327.797,28.401 L 335.048,26.151 L 335.048,30.651 L 327.797,28.401 z "
   id="path94" />
					<path
   d=""
   id="path96" />
				</g>
				<path
   d="M 335.048,28.401 L 401.229,28.401"
   id="path98"
   style="fill:none;stroke:black;stroke-width:0.5;stroke-linecap:square" />
			</g><g
   id="g100">
				<g
   id="g102">
					<path
   d="M 32.375,87.593 L 35.75,98.47 L 29,98.47 L 32.375,87.593 z "
   id="path104"
   style="fill:#008837" />
					<path
   d=""
   id="path106" />
				</g>
				<path
   d="M 32.375,98.47 L 32.375,152.75"
   id="path108"
   style="fill:#078936;stroke:#33a02c;stroke-width:2;stroke-linecap:square" />
			</g><g
   id="g110">
				<g
   id="g112">
					<path
   d="M 497.661,190.074 L 495.839,184.2 L 499.485,184.2 L 497.661,190.074 z "
   id="path114"
   style="fill:#008837" />
					<path
   d=""
   id="path116" />
				</g>
				<path
   d="M 497.661,184.2 L 497.661,153.632"
   id="path118"
   style="fill:#078936;stroke:#33a02c;stroke-width:2;stroke-linecap:square" />
			</g><path
   d="M 32.375,87.593 L 318.052,87.593 L 338.087,93.801 L 517.313,201.93"
   id="path120"
   style="fill:none;stroke:red" /><path
   d="M 327.733,152.646 L 520.14,195.023"
   id="path122"
   style="stroke:red" /><path
   d="M 327.797,22.09 L 327.797,247.217"
   id="path124"
   style="fill:white;stroke:black;stroke-width:0.25" /><path
   d="M 517.661,190.074 L 341.645,190.074 L 313.341,185.078 L 219.801,152.75 L 32.375,87.593"
   id="path126"
   style="fill:none;stroke:red" /><path
   d="M 32.375,87.593 L 327.733,152.647"
   id="path128"
   style="fill:none;stroke:red" /><g
   id="g130">
				<path
   d="M 276.375,51.919 L 276.252,52.372 L 275.256,52.372 L 274.42,55.392 C 274.055,56.7 273.7,57.713 273.359,58.433 C 272.877,59.449 272.357,60.15 271.801,60.538 C 271.378,60.834 270.955,60.982 270.532,60.982 C 270.256,60.982 270.022,60.899 269.828,60.735 C 269.686,60.621 269.615,60.472 269.615,60.289 C 269.615,60.143 269.674,60.016 269.79,59.909 C 269.908,59.802 270.051,59.748 270.221,59.748 C 270.345,59.748 270.45,59.787 270.534,59.865 C 270.619,59.942 270.661,60.032 270.661,60.133 C 270.661,60.234 270.611,60.327 270.51,60.414 C 270.434,60.478 270.395,60.526 270.395,60.558 C 270.395,60.599 270.411,60.631 270.443,60.654 C 270.484,60.686 270.548,60.702 270.634,60.702 C 270.83,60.702 271.036,60.64 271.253,60.517 C 271.469,60.393 271.662,60.208 271.83,59.964 C 271.999,59.718 272.158,59.365 272.309,58.902 C 272.375,58.711 272.557,58.083 272.852,57.017 L 274.172,52.374 L 272.834,52.374 L 272.934,51.921 C 273.356,51.921 273.651,51.895 273.821,51.842 C 273.989,51.79 274.143,51.69 274.283,51.542 C 274.424,51.395 274.59,51.118 274.782,50.714 C 275.039,50.169 275.286,49.746 275.522,49.446 C 275.844,49.042 276.184,48.738 276.54,48.536 C 276.895,48.334 277.231,48.233 277.546,48.233 C 277.878,48.233 278.144,48.32 278.345,48.494 C 278.546,48.668 278.646,48.857 278.646,49.06 C 278.646,49.218 278.593,49.352 278.488,49.46 C 278.382,49.568 278.247,49.623 278.082,49.623 C 277.939,49.623 277.824,49.582 277.734,49.5 C 277.644,49.418 277.599,49.321 277.599,49.207 C 277.599,49.135 277.63,49.045 277.693,48.938 C 277.756,48.831 277.788,48.76 277.788,48.724 C 277.788,48.661 277.769,48.613 277.732,48.581 C 277.677,48.536 277.599,48.513 277.496,48.513 C 277.234,48.513 277.001,48.607 276.794,48.795 C 276.516,49.045 276.268,49.435 276.048,49.966 C 275.936,50.244 275.71,50.895 275.37,51.919 L 276.375,51.919 L 276.375,51.919 z "
   id="path132" />
			</g><g
   id="g134">
				<path
   d="M 153.344,33.203 L 154.094,29.765 L 154.344,29.765 C 154.312,30.098 154.296,30.373 154.296,30.592 C 154.296,31.216 154.495,31.724 154.894,32.115 C 155.293,32.506 155.813,32.702 156.456,32.702 C 157.053,32.702 157.506,32.519 157.816,32.153 C 158.126,31.787 158.281,31.365 158.281,30.887 C 158.281,30.578 158.21,30.296 158.068,30.042 C 157.852,29.665 157.277,29 156.342,28.05 C 155.888,27.596 155.597,27.257 155.469,27.034 C 155.261,26.666 155.156,26.279 155.156,25.875 C 155.156,25.229 155.399,24.677 155.885,24.218 C 156.371,23.759 156.994,23.53 157.755,23.53 C 158.011,23.53 158.254,23.555 158.484,23.606 C 158.626,23.634 158.885,23.726 159.261,23.883 C 159.527,23.989 159.674,24.047 159.701,24.056 C 159.765,24.07 159.836,24.077 159.914,24.077 C 160.047,24.077 160.162,24.043 160.258,23.973 C 160.354,23.903 160.466,23.756 160.595,23.53 L 160.845,23.53 L 160.126,26.608 L 159.876,26.608 C 159.894,26.334 159.903,26.113 159.903,25.944 C 159.903,25.392 159.72,24.94 159.356,24.589 C 158.991,24.237 158.51,24.062 157.913,24.062 C 157.439,24.062 157.054,24.201 156.757,24.478 C 156.46,24.755 156.313,25.076 156.313,25.44 C 156.313,25.758 156.408,26.062 156.599,26.35 C 156.789,26.639 157.227,27.11 157.913,27.762 C 158.599,28.414 159.042,28.923 159.245,29.289 C 159.447,29.655 159.548,30.045 159.548,30.459 C 159.548,30.927 159.423,31.381 159.174,31.82 C 158.925,32.259 158.568,32.599 158.102,32.841 C 157.636,33.082 157.126,33.202 156.574,33.202 C 156.3,33.202 156.044,33.177 155.807,33.127 C 155.569,33.077 155.19,32.954 154.669,32.758 C 154.491,32.69 154.343,32.655 154.224,32.655 C 153.954,32.655 153.744,32.838 153.594,33.202 L 153.344,33.203 z "
   id="path136" />
				<path
   d="M 164.82,29.578 L 163.088,35.59 C 162.988,35.947 162.938,36.205 162.938,36.363 C 162.938,36.497 162.984,36.598 163.075,36.669 C 163.166,36.74 163.38,36.787 163.717,36.813 L 163.663,37 L 160.906,37 L 160.981,36.812 C 161.274,36.805 161.468,36.782 161.561,36.742 C 161.711,36.677 161.824,36.591 161.899,36.482 C 162.017,36.316 162.137,36.018 162.259,35.589 L 163.505,31.265 C 163.58,31.003 163.621,30.853 163.629,30.813 C 163.64,30.741 163.645,30.672 163.645,30.604 C 163.645,30.479 163.611,30.38 163.543,30.308 C 163.475,30.237 163.381,30.201 163.263,30.201 C 163.169,30.201 163.024,30.222 162.825,30.265 L 162.755,30.077 L 164.562,29.577 L 164.82,29.578 z "
   id="path138" />
			</g><g
   id="g140">
				<path
   d="M 404.844,33.203 L 405.594,29.765 L 405.844,29.765 C 405.813,30.098 405.796,30.373 405.796,30.592 C 405.796,31.216 405.995,31.724 406.395,32.115 C 406.793,32.507 407.315,32.702 407.958,32.702 C 408.555,32.702 409.008,32.519 409.318,32.153 C 409.628,31.787 409.783,31.365 409.783,30.887 C 409.783,30.578 409.712,30.296 409.57,30.042 C 409.353,29.665 408.779,29 407.842,28.05 C 407.389,27.596 407.098,27.257 406.969,27.034 C 406.761,26.666 406.656,26.279 406.656,25.875 C 406.656,25.229 406.898,24.677 407.385,24.218 C 407.872,23.759 408.494,23.53 409.255,23.53 C 409.512,23.53 409.754,23.555 409.984,23.606 C 410.126,23.634 410.384,23.726 410.759,23.883 C 411.026,23.989 411.172,24.047 411.199,24.056 C 411.262,24.07 411.334,24.077 411.412,24.077 C 411.545,24.077 411.659,24.043 411.756,23.973 C 411.854,23.903 411.964,23.756 412.093,23.53 L 412.343,23.53 L 411.624,26.608 L 411.374,26.608 C 411.392,26.334 411.401,26.113 411.401,25.944 C 411.401,25.392 411.217,24.94 410.854,24.589 C 410.489,24.237 410.007,24.062 409.411,24.062 C 408.937,24.062 408.552,24.201 408.256,24.478 C 407.96,24.755 407.813,25.076 407.813,25.44 C 407.813,25.758 407.909,26.062 408.097,26.35 C 408.288,26.639 408.727,27.11 409.411,27.762 C 410.098,28.414 410.541,28.923 410.743,29.289 C 410.944,29.655 411.046,30.045 411.046,30.459 C 411.046,30.927 410.921,31.381 410.673,31.82 C 410.423,32.259 410.068,32.599 409.602,32.841 C 409.135,33.082 408.625,33.202 408.075,33.202 C 407.801,33.202 407.545,33.177 407.306,33.127 C 407.069,33.077 406.69,32.954 406.168,32.758 C 405.99,32.69 405.842,32.655 405.724,32.655 C 405.454,32.655 405.245,32.838 405.093,33.202 L 404.844,33.203 z "
   id="path142" />
				<path
   d="M 415.563,37 L 411.921,37 L 411.921,36.801 C 413.763,35.183 414.981,33.914 415.571,32.994 C 415.844,32.568 415.983,32.12 415.983,31.652 C 415.983,31.28 415.869,30.976 415.64,30.742 C 415.411,30.508 415.118,30.39 414.753,30.39 C 414.25,30.39 413.837,30.635 413.513,31.124 L 413.325,31.038 C 413.508,30.576 413.774,30.217 414.126,29.961 C 414.478,29.705 414.856,29.577 415.265,29.577 C 415.728,29.577 416.117,29.735 416.431,30.051 C 416.745,30.367 416.905,30.75 416.905,31.2 C 416.905,31.514 416.847,31.805 416.736,32.073 C 416.561,32.491 416.241,32.959 415.774,33.476 C 415.075,34.271 414.14,35.185 412.974,36.217 L 414.827,36.217 C 415.118,36.217 415.358,36.156 415.547,36.034 C 415.736,35.912 415.87,35.749 415.952,35.545 L 416.171,35.545 L 415.563,37 z "
   id="path144" />
			</g><g
   id="g146">
				<path
   d="M 384.375,51.919 L 384.252,52.372 L 383.257,52.372 L 382.421,55.392 C 382.055,56.7 381.701,57.713 381.361,58.433 C 380.879,59.449 380.359,60.15 379.801,60.538 C 379.379,60.834 378.955,60.982 378.533,60.982 C 378.257,60.982 378.022,60.899 377.829,60.735 C 377.687,60.621 377.615,60.472 377.615,60.289 C 377.615,60.143 377.674,60.016 377.791,59.909 C 377.908,59.802 378.052,59.748 378.222,59.748 C 378.346,59.748 378.451,59.787 378.535,59.865 C 378.62,59.942 378.662,60.032 378.662,60.133 C 378.662,60.234 378.612,60.327 378.512,60.414 C 378.437,60.478 378.398,60.526 378.398,60.558 C 378.398,60.599 378.415,60.631 378.447,60.654 C 378.488,60.686 378.551,60.702 378.637,60.702 C 378.832,60.702 379.038,60.64 379.255,60.517 C 379.471,60.393 379.664,60.208 379.832,59.964 C 380.001,59.718 380.16,59.365 380.311,58.902 C 380.377,58.711 380.56,58.083 380.855,57.017 L 382.174,52.374 L 380.836,52.374 L 380.936,51.921 C 381.359,51.921 381.655,51.895 381.823,51.842 C 381.991,51.79 382.145,51.69 382.285,51.542 C 382.426,51.395 382.592,51.118 382.784,50.714 C 383.041,50.169 383.288,49.746 383.524,49.446 C 383.845,49.042 384.186,48.738 384.542,48.536 C 384.898,48.334 385.233,48.233 385.548,48.233 C 385.88,48.233 386.147,48.32 386.347,48.494 C 386.548,48.668 386.649,48.857 386.649,49.06 C 386.649,49.218 386.595,49.352 386.491,49.46 C 386.386,49.568 386.25,49.623 386.085,49.623 C 385.942,49.623 385.827,49.582 385.737,49.5 C 385.647,49.418 385.602,49.321 385.602,49.207 C 385.602,49.135 385.632,49.045 385.696,48.938 C 385.759,48.831 385.79,48.76 385.79,48.724 C 385.79,48.661 385.771,48.613 385.734,48.581 C 385.679,48.536 385.601,48.513 385.498,48.513 C 385.237,48.513 385.003,48.607 384.796,48.795 C 384.52,49.045 384.271,49.435 384.05,49.966 C 383.94,50.244 383.712,50.895 383.372,51.919 L 384.375,51.919 L 384.375,51.919 z "
   id="path148" />
			</g>
</svg>